# xmcd
#
# Track frame offsets:
#	150
#	16177
#	34090
#	58187
#
# Disc length: 1008 seconds
#
# Revision: 1
# Processed by: cddbd v1.4PL0 Copyright (c) Steve Scherf et al.
# Submitted via: EasyCDDAExtractor 6.0.0.1
#
DISCID=2a03ee04
DTITLE=Alex Britti - Allegato a Tribe
DYEAR=2003
DGENRE=Pop
TTITLE0=Solo una vez o toda la vida
TTITLE1=Gelido (versione acustica)
TTITLE2=7000 caffè (versione acustica)
TTITLE3=Dendedendendenden (versione acustica)
EXTD=
EXTT0=
EXTT1=
EXTT2=
EXTT3=
PLAYORDER=
